<?xml version="1.0" encoding="utf-8"?>
<!-- Generator: Adobe Illustrator 27.3.1, SVG Export Plug-In . SVG Version: 6.00 Build 0)  -->
<svg version="1.1" id="Layer_1" xmlns="http://www.w3.org/2000/svg" xmlns:xlink="http://www.w3.org/1999/xlink" x="0px" y="0px"
	 viewBox="0 0 200 75" style="enable-background:new 0 0 200 75;" xml:space="preserve">
<style type="text/css">
	.st0{fill:url(#SVGID_1_);}
	.st1{fill:url(#SVGID_00000029760203531827298730000002754780773385083317_);}
	
		.st2{fill:none;stroke:url(#SVGID_00000181068081542888201100000011028408831709889469_);stroke-width:0.567;stroke-miterlimit:5.0314;}
	.st3{fill:url(#SVGID_00000091706619715883610260000006643880558357135253_);}
	
		.st4{fill:none;stroke:url(#SVGID_00000127726071063417015060000015707847461261404036_);stroke-width:0.567;stroke-miterlimit:5.0314;}
	.st5{fill:#FFFFFF;}
</style>
<linearGradient id="SVGID_1_" gradientUnits="userSpaceOnUse" x1="-150.4477" y1="173.9012" x2="-150.4477" y2="132.5858" gradientTransform="matrix(1.2579 0 0 -1.2579 221.5031 229.8396)">
	<stop  offset="0" style="stop-color:#A4C1FF"/>
	<stop  offset="1" style="stop-color:#0E78F9"/>
</linearGradient>
<path class="st0" d="M24.7,11.1c1,0,1.9,0,2.8,0h9.3c0.9,0,1.9,0,2.8,0c2.6,0,5.2,0,6.9,0.1c6.4,0.4,10.8,4.3,11.4,10.9
	c0.1,2.4,0.1,5.2,0.1,8.6v0c0,0.6,0,1.2,0,1.8v9.3c0,0.6,0,1.2,0,1.8c0,3.4,0,6.2-0.1,8.6c-0.6,6.6-5,10.5-11.4,10.9
	c-1.8,0.1-4.4,0.1-6.9,0.1c-1,0-1.9,0-2.8,0h-9.3c-0.9,0-1.9,0-2.8,0c-2.6,0-5.2,0-6.9-0.1C11.4,62.6,7,58.7,6.4,52.1
	c-0.1-2.4-0.1-5.2-0.1-8.6v0c0-0.6,0-1.2,0-1.8v-9.3c0-0.6,0-1.2,0-1.8v0c0-3.4,0-6.2,0.1-8.6c0.6-6.6,5-10.5,11.4-10.9
	C19.6,11.1,22.2,11.1,24.7,11.1z"/>
<g>
	
		<linearGradient id="SVGID_00000079463619629729834200000015033877153678542490_" gradientUnits="userSpaceOnUse" x1="-154.3567" y1="161.0786" x2="-154.3567" y2="145.5012" gradientTransform="matrix(1.2579 0 0 -1.2579 221.5031 229.8396)">
		<stop  offset="0" style="stop-color:#FFFFFF"/>
		<stop  offset="1" style="stop-color:#C5D4F7"/>
	</linearGradient>
	<path style="fill:url(#SVGID_00000079463619629729834200000015033877153678542490_);" d="M14.7,29.6c0-1.3,1.1-2.4,2.4-2.4h16.8
		c3.3,0,6,2.7,6,6v11.2c0,1.3-1.1,2.4-2.4,2.4H20.8c-3.3,0-6-2.7-6-6V29.6z"/>
	
		<linearGradient id="SVGID_00000055688460867388501640000004194495627789490067_" gradientUnits="userSpaceOnUse" x1="-154.3567" y1="161.0786" x2="-154.3567" y2="145.5012" gradientTransform="matrix(1.2579 0 0 -1.2579 221.5031 229.8396)">
		<stop  offset="0" style="stop-color:#FFFFFF"/>
		<stop  offset="1" style="stop-color:#637ACA"/>
	</linearGradient>
	
		<path style="fill:none;stroke:url(#SVGID_00000055688460867388501640000004194495627789490067_);stroke-width:0.567;stroke-miterlimit:5.0314;" d="
		M17.1,27.5h16.8c3.2,0,5.8,2.6,5.8,5.8v11.2c0,1.2-0.9,2.1-2.1,2.1H20.8c-3.2,0-5.8-2.6-5.8-5.8V29.6C15,28.5,16,27.5,17.1,27.5z"
		/>
</g>
<g>
	
		<linearGradient id="SVGID_00000137130935293869282920000003743735630322559879_" gradientUnits="userSpaceOnUse" x1="-139.8061" y1="160.9283" x2="-139.8061" y2="145.6133" gradientTransform="matrix(1.2579 0 0 -1.2579 221.5031 229.8396)">
		<stop  offset="0" style="stop-color:#FFFFFF"/>
		<stop  offset="1" style="stop-color:#C5D4F7"/>
	</linearGradient>
	<path style="fill:url(#SVGID_00000137130935293869282920000003743735630322559879_);" d="M41.5,34.2c0-0.8,0.4-1.6,1-2.1l4.8-4.2
		c1-0.9,2.6-0.2,2.6,1.2v16.1c0,1.3-1.6,2.1-2.6,1.2l-4.4-3.7c-0.9-0.7-1.4-1.8-1.4-3V34.2z"/>
	
		<linearGradient id="SVGID_00000121252118405882299600000001156124676547526824_" gradientUnits="userSpaceOnUse" x1="-139.8061" y1="160.9283" x2="-139.8061" y2="145.6133" gradientTransform="matrix(1.2579 0 0 -1.2579 221.5031 229.8396)">
		<stop  offset="0" style="stop-color:#FFFFFF"/>
		<stop  offset="1" style="stop-color:#637ACA"/>
	</linearGradient>
	
		<path style="fill:none;stroke:url(#SVGID_00000121252118405882299600000001156124676547526824_);stroke-width:0.567;stroke-miterlimit:5.0314;" d="
		M42.6,32.2l4.8-4.2c0.8-0.7,2.1-0.1,2.1,1v16.1c0,1.1-1.3,1.7-2.1,1L43,42.3c-0.8-0.7-1.3-1.7-1.3-2.8v-5.4
		C41.7,33.4,42.1,32.7,42.6,32.2z"/>
</g>
<g>
	<g>
		<path class="st5" d="M70.2,21.7h12c6.7,0,9.2,3.5,9.2,7.1c0,3.1-1.6,5.1-3.5,6c1.9,0.7,4.3,2.7,4.3,6.3c0,4.7-3.7,8.3-9.6,8.3
			H70.2V21.7z M81.6,32.6c2.8,0,4-1.3,4-3.2c0-2-1.5-3.1-3.8-3.1h-5.7v6.3H81.6z M76.1,44.7h5.4c3.2,0,4.7-1.3,4.7-3.8
			c0-2.2-1.4-3.6-4.7-3.6h-5.3V44.7z"/>
		<path class="st5" d="M122.6,35.4c0,7.7-4.6,14.3-13.6,14.3c-8.7,0-13.2-6.3-13.2-14.2c0-8,5-14.2,13.6-14.2
			C117.5,21.3,122.6,27,122.6,35.4z M102,35.4c0,5.4,2.4,9.5,7.2,9.5c5.3,0,7.2-4.4,7.2-9.4c0-5.2-2.1-9.3-7.3-9.3
			C104.2,26.2,102,30,102,35.4z"/>
		<path class="st5" d="M153.2,35.4c0,7.7-4.6,14.3-13.6,14.3c-8.7,0-13.2-6.3-13.2-14.2c0-8,5-14.2,13.6-14.2
			C148.1,21.3,153.2,27,153.2,35.4z M132.6,35.4c0,5.4,2.4,9.5,7.2,9.5c5.3,0,7.2-4.4,7.2-9.4c0-5.2-2.1-9.3-7.3-9.3
			C134.8,26.2,132.6,30,132.6,35.4z"/>
		<path class="st5" d="M181.5,38.9c0-4.7,0.1-10,0.2-13.1h-0.2c-1.3,5.6-4.1,14.8-6.7,23.4h-5.1c-2-7.5-4.9-18-6.1-23.5h-0.2
			c0.2,3.2,0.4,8.9,0.4,13.6v9.9h-5.4V21.7h8.9c2.1,7.2,4.6,16.2,5.4,20.4h0c0.7-3.6,3.7-13.3,6-20.4h8.6v27.6h-5.8V38.9z"/>
	</g>
</g>
</svg>
