<?xml version="1.0" encoding="utf-8"?>
<!-- Generator: Adobe Illustrator 27.3.1, SVG Export Plug-In . SVG Version: 6.00 Build 0)  -->
<svg version="1.1" id="Layer_1" xmlns="http://www.w3.org/2000/svg" xmlns:xlink="http://www.w3.org/1999/xlink" x="0px" y="0px"
	 viewBox="0 0 14 14" style="enable-background:new 0 0 14 14;" xml:space="preserve">
<style type="text/css">
	.st0{fill:#EFF0F1;}
</style>
<path class="st0" d="M12.7,6.2l-2.6,2.6C10,8.9,9.8,9,9.6,9C9.5,9,9.3,8.9,9.2,8.8C9,8.7,9,8.5,9,8.3S9,8,9.2,7.8l1.5-1.5H9
	c-1,0-2,0.3-2.8,1C5.4,7.9,4.8,8.8,4.6,9.8c0,0.1-0.1,0.2-0.1,0.2c-0.1,0.1-0.1,0.1-0.2,0.2c-0.1,0-0.2,0.1-0.2,0.1
	c-0.1,0-0.2,0-0.3,0c-0.1,0-0.2-0.1-0.2-0.1C3.5,10.1,3.4,10,3.4,10c0-0.1-0.1-0.2-0.1-0.2c0-0.1,0-0.2,0-0.3
	c0.3-1.3,1.1-2.4,2.1-3.2C6.4,5.5,7.7,5,9,5h1.6L9.2,3.5C9,3.4,9,3.2,9,3.1S9,2.7,9.2,2.6c0.1-0.1,0.3-0.2,0.5-0.2
	c0.2,0,0.3,0.1,0.5,0.2l2.6,2.6c0.1,0.1,0.1,0.1,0.1,0.2s0.1,0.2,0,0.3c0,0.1,0,0.2-0.1,0.3C12.8,6,12.8,6.1,12.7,6.2z M10.5,11.2
	H2.4V4.8c0-0.2-0.1-0.3-0.2-0.5C2.1,4.2,1.9,4.2,1.8,4.2S1.4,4.2,1.3,4.3C1.2,4.5,1.1,4.6,1.1,4.8v6.6c0,0.3,0.1,0.6,0.3,0.8
	c0.2,0.2,0.5,0.3,0.8,0.3h8.3c0.2,0,0.3-0.1,0.5-0.2c0.1-0.1,0.2-0.3,0.2-0.5c0-0.2-0.1-0.3-0.2-0.5C10.8,11.2,10.7,11.2,10.5,11.2z
	"/>
</svg>
